<svg width="32" height="32" viewBox="0 0 100 100" fill="none" xmlns="http://www.w3.org/2000/svg">
    <!-- Architectural Octagonal Symbol -->
    <path
        d="M50 5L81.8 18.2L95 50L81.8 81.8L50 95L18.2 81.8L5 50L18.2 18.2Z"
        stroke="black"
        stroke-width="4"
        opacity="0.2"
    />
    <path
        d="M50 15L74.7 25.3L85 50L74.7 74.7L50 85L25.3 74.7L15 50L25.3 25.3Z"
        stroke="black"
        stroke-width="3"
        opacity="0.4"
    />
    <path
        d="M50 15V35 M74.7 25.3L60.6 39.4 M85 50H65 M74.7 74.7L60.6 60.6 M50 85V65 M25.3 74.7L39.4 60.6 M15 50H35 M25.3 25.3L39.4 39.4"
        stroke="black"
        stroke-width="2"
        opacity="0.6"
    />
    <path
        d="M50 35L60.6 39.4L65 50L60.6 60.6L50 65L39.4 60.6L35 50L39.4 39.4Z"
        fill="black"
    />
    <circle cx="50" cy="5" r="5" fill="black" />
    <circle cx="81.8" cy="18.2" r="5" fill="black" />
    <circle cx="95" cy="50" r="5" fill="black" />
    <circle cx="81.8" cy="81.8" r="5" fill="black" />
    <circle cx="50" cy="95" r="5" fill="black" />
    <circle cx="18.2" cy="81.8" r="5" fill="black" />
    <circle cx="5" cy="50" r="5" fill="black" />
    <circle cx="18.2" cy="18.2" r="5" fill="black" />
</svg>
